<svg xmlns="http://www.w3.org/2000/svg" viewBox="0 0 24 24" fill="none" class="w-full h-full">
  <rect width="24" height="24" rx="12" fill="#F97316"/>
  <path d="M12 4a5 5 0 00-5 5v2a1 1 0 00-1 1v4a1 1 0 001 1h1v-6H7v-2a5 5 0 1110 0v2h-1v6h1a1 1 0 001-1v-4a1 1 0 00-1-1v-2a5 5 0 00-5-5z" fill="white"/>
  <path d="M15 17v-1.5a1.5 1.5 0 00-1.5-1.5H12a2 2 0 00-2 2v0.5" stroke="white" stroke-width="2" stroke-linecap="round" stroke-linejoin="round"/>
  <path d="M9 13v5c0 1.1.9 2 2 2h2c1.1 0 2-.9 2-2v-5" fill="white"/>
  <path d="M19 11v6" stroke="white" stroke-width="2" stroke-linecap="round"/>
  <circle cx="12" cy="12" r="12" fill="#F97316"/>
  <path d="M12 13a4 4 0 100-8 4 4 0 000 8z" fill="white"/>
  <path d="M12 15c-2.67 0-8 1.34-8 4v2h16v-2c0-2.66-5.33-4-8-4z" fill="white"/>
  <path d="M16 11c0 1.66-1.34 3-3 3-1.66 0-3-1.34-3-3V9a3 3 0 116 0v2z" fill="none" stroke="white" stroke-width="2"/> 
  <path d="M19 10v2a1 1 0 01-1 1h-1v-4h1a1 1 0 011 1z" fill="white"/>
  <path d="M6 10v2a1 1 0 001 1h1v-4H7a1 1 0 00-1 1z" fill="white"/>
  <!-- Simplified Headset Icon on Orange Background -->
  <circle cx="12" cy="12" r="12" fill="#F97316"/>
  <path fill="white" d="M19 12h-1a2 2 0 0 0-2 2v3a2 2 0 0 0 2 2h1a1 1 0 0 0 1-1v-5a1 1 0 0 0-1-1ZM7 12H6a1 1 0 0 0-1 1v5a1 1 0 0 0 1 1h1a2 2 0 0 0 2-2v-3a2 2 0 0 0-2-2Zm12-1V9c0-3.87-3.13-7-7-7S5 5.13 5 9v2h2V9c0-2.76 2.24-5 5-5s5 2.24 5 5v2h2Z"/>
  <path stroke="white" stroke-linecap="round" stroke-linejoin="round" stroke-width="2" d="M15 16h2M6.5 16H9"/> 
  <path fill="white" d="M16.5 16c0 1.5-.5 2.5-1.5 3.5l-2.5 1c-1.5.5-3 0-3.5-1"/>
</svg>
